<svg id="Layer_1" data-name="Layer 1" xmlns="http://www.w3.org/2000/svg" viewBox="0 0 96.97 94.77"><defs><style>.cls-1{fill:#003d9e;}.cls-2{fill:#ffd602;}</style></defs><path class="cls-1" d="M36.91,37a5.18,5.18,0,0,0-2.17-.61,1.07,1.07,0,0,0-1.08,1.52,6.45,6.45,0,0,0,.62,1.3c.48.77,1,1.49,1.48,2.28a10,10,0,0,1,1,2.05,1.88,1.88,0,0,1-2.19,2.57,7.37,7.37,0,0,1-1.81-.44,23.77,23.77,0,0,1-8.63-6.17,8.61,8.61,0,0,1-2.28-5c-.17-1.48-.29-3-.46-4.44-.24-2.11-1-3.94-3-5-.95-.52-1.45-.28-1.43.79.07,3.1.07,6.21.3,9.3a20.26,20.26,0,0,0,1.05,5.42A21.44,21.44,0,0,0,30.52,53c2.34,1,4.79,1.81,7.13,2.82C41,57.27,44.23,59,46.47,62.29c0-.27.07-.38.08-.49a53,53,0,0,0-.21-11.4C45.58,44.21,42.08,40,36.91,37Z"/><path class="cls-1" d="M80,25.66c0-1-.53-1.23-1.38-.75a5.17,5.17,0,0,0-2.76,3.77c-.29,1.7-.43,3.43-.62,5.15a9.39,9.39,0,0,1-2.14,5.34A24.81,24.81,0,0,1,67.37,44a12.4,12.4,0,0,1-4.8,2c-1.93.28-3-1-2.28-2.84a23.35,23.35,0,0,1,1.43-2.58A28,28,0,0,0,63.24,38,1.1,1.1,0,0,0,62,36.33a4,4,0,0,0-1.71.48,41.38,41.38,0,0,0-3.6,2.52,15,15,0,0,0-5.57,8.53,39.85,39.85,0,0,0-1,10.44c0,1.28.15,2.55.25,4a16.82,16.82,0,0,1,7.17-5.68c2.24-1,4.54-2,6.87-2.82A23.78,23.78,0,0,0,75,46.74a18.76,18.76,0,0,0,4.49-9.67A80.57,80.57,0,0,0,80,25.66Z"/><path class="cls-1" d="M70.19,40.1l.16.07,1.28-1.36a6.37,6.37,0,0,0,2-5.47,53.9,53.9,0,0,0-1.28-5.27c-.14-.52-.73-.59-1.18-.18a4.5,4.5,0,0,0-1.63,2.82A15.07,15.07,0,0,0,69.6,34C69.85,36,70.43,38,70.19,40.1Z"/><path class="cls-1" d="M26.68,40.15c.05-.94,0-1.8.14-2.66.19-1.49.48-3,.69-4.46a5.52,5.52,0,0,0-1.6-5c-.63-.6-1.17-.47-1.4.37-.3,1-.55,2.1-.85,3.14a8.3,8.3,0,0,0-.3,3.64C23.72,37.29,25.16,38.72,26.68,40.15Z"/><path class="cls-1" d="M48.48-.06a26,26,0,0,0-25.95,26q0,.87.06,1.74a26,26,0,0,1,51.8,0q.06-.87.06-1.74A26,26,0,0,0,48.48-.06Z"/><path class="cls-1" d="M48.27,44s0,0,0,0c.13-.21.27-.42.41-.63-.15.21-.29.43-.43.65Z"/><path class="cls-1" d="M0,81.74V74.17H5.72v1.4h-4v6.17ZM1.62,79V77.57H5.25V79Z"/><path class="cls-1" d="M6.91,81.74V74.17h5.71v1.4h-4v4.76h4.12v1.41Zm1.61-3.16V77.21h3.64v1.37Z"/><path class="cls-1" d="M14.16,81.74V74.17h5.72v1.4h-4v4.76H20v1.41Zm1.61-3.16V77.21h3.64v1.37Z"/><path class="cls-1" d="M21.41,81.74V74.17h3.44a4.84,4.84,0,0,1,2.17.47A3.49,3.49,0,0,1,28.49,76a4,4,0,0,1,0,4A3.63,3.63,0,0,1,27,81.27a4.84,4.84,0,0,1-2.17.47Zm1.76-1.43h1.59A2.89,2.89,0,0,0,26.08,80a2.06,2.06,0,0,0,.86-.82A2.42,2.42,0,0,0,27.25,78a2.39,2.39,0,0,0-.31-1.25,2.12,2.12,0,0,0-.86-.82,2.88,2.88,0,0,0-1.32-.28H23.17Z"/><path class="cls-1" d="M35,81.74V75.6H32.54V74.17h6.6V75.6H36.72v6.14Z"/><path class="cls-1" d="M40.08,81.74V74.17h1.76v7.57Zm1.62-3.11V77.15h3.7v1.48Zm3.57,3.11V74.17H47v7.57Z"/><path class="cls-1" d="M48.81,81.74V74.17h5.72v1.4h-4v4.76h4.12v1.41Zm1.61-3.16V77.21h3.64v1.37Z"/><path class="cls-1" d="M59.12,81.74V74.17h1.76v7.57Zm1.62-3.11V77.15h3.7v1.48Zm3.57,3.11V74.17h1.75v7.57Z"/><path class="cls-1" d="M67.86,81.74V74.17h5.71v1.4h-4v4.76h4.11v1.41Zm1.61-3.16V77.21h3.64v1.37Z"/><path class="cls-1" d="M74.11,81.74l3.37-7.57h1.73l3.39,7.57H80.76L78,75.06h.71l-2.78,6.68Zm1.7-1.63.44-1.33h3.92l.45,1.33Z"/><path class="cls-1" d="M83.39,81.74V74.17h3.23a3.69,3.69,0,0,1,2.45.73,2.44,2.44,0,0,1,.88,2,2.61,2.61,0,0,1-.4,1.47,2.51,2.51,0,0,1-1.14.93,4.41,4.41,0,0,1-1.75.32H84.35l.8-.76v2.88Zm1.76-2.69-.8-.83h2.22a1.86,1.86,0,0,0,1.21-.34,1.22,1.22,0,0,0,.41-1,1.18,1.18,0,0,0-.41-1,1.86,1.86,0,0,0-1.21-.34H84.35l.8-.84Zm3.06,2.69L86.31,79h1.88l1.9,2.75Z"/><path class="cls-1" d="M92.8,81.74V75.6H90.38V74.17H97V75.6H94.55v6.14Z"/><path class="cls-1" d="M.24,94.71V87.14H6v1.4H2v6.17ZM1.86,92V90.54H5.5V92Z"/><path class="cls-1" d="M12.88,94.84a4.4,4.4,0,0,1-1.65-.3,3.73,3.73,0,0,1-1.32-.82A3.49,3.49,0,0,1,9,92.48a4.08,4.08,0,0,1,0-3.12,3.67,3.67,0,0,1,.87-1.24,4.1,4.1,0,0,1,1.31-.82,4.84,4.84,0,0,1,3.3,0,4,4,0,0,1,1.31.81,3.91,3.91,0,0,1,.87,1.25A4,4,0,0,1,17,90.92a4,4,0,0,1-.31,1.57,3.85,3.85,0,0,1-2.18,2.06A4.59,4.59,0,0,1,12.88,94.84Zm0-1.49a2.33,2.33,0,0,0,.93-.17,2.17,2.17,0,0,0,.75-.51,2.35,2.35,0,0,0,.51-.77,2.55,2.55,0,0,0,.17-1,2.59,2.59,0,0,0-.17-1,2.31,2.31,0,0,0-.51-.76,2.17,2.17,0,0,0-.75-.51,2.34,2.34,0,0,0-.93-.18,2.42,2.42,0,0,0-.94.18,2.17,2.17,0,0,0-.75.51,2.28,2.28,0,0,0-.5.76,2.59,2.59,0,0,0-.18,1,2.55,2.55,0,0,0,.18,1,2.33,2.33,0,0,0,.5.77,2.17,2.17,0,0,0,.75.51A2.42,2.42,0,0,0,12.87,93.35Z"/><path class="cls-1" d="M23.85,94.84a3.44,3.44,0,0,1-2.52-.9,3.49,3.49,0,0,1-.91-2.57V87.14h1.77v4.18a2.21,2.21,0,0,0,.44,1.55,1.58,1.58,0,0,0,1.23.48,1.6,1.6,0,0,0,1.24-.48,2.21,2.21,0,0,0,.45-1.55V87.14h1.72v4.23a3.49,3.49,0,0,1-.91,2.57A3.41,3.41,0,0,1,23.85,94.84Z"/><path class="cls-1" d="M31.17,94.71V87.14h1.45l4.46,5.45h-.7V87.14h1.73v7.57H36.66l-4.47-5.45h.71v5.45Z"/><path class="cls-1" d="M42.06,94.71V87.14H45.5a4.84,4.84,0,0,1,2.17.47,3.49,3.49,0,0,1,1.47,1.32,4,4,0,0,1,0,4,3.63,3.63,0,0,1-1.47,1.32,4.84,4.84,0,0,1-2.17.47Zm1.76-1.43h1.59A2.89,2.89,0,0,0,46.73,93a2,2,0,0,0,.86-.82,2.42,2.42,0,0,0,.31-1.25,2.39,2.39,0,0,0-.31-1.25,2.06,2.06,0,0,0-.86-.82,2.88,2.88,0,0,0-1.32-.28H43.82Z"/><path class="cls-1" d="M52.05,94.71l3.36-7.57h1.73l3.39,7.57H58.7L55.92,88h.7l-2.78,6.68Zm1.7-1.63.44-1.33H58.1l.46,1.33Z"/><path class="cls-1" d="M64.67,94.71V88.57H62.25V87.14h6.6v1.43H66.42v6.14Z"/><path class="cls-1" d="M72,94.71V87.14h1.76v7.57Z"/><path class="cls-1" d="M81.33,94.84a4.4,4.4,0,0,1-1.65-.3,3.73,3.73,0,0,1-1.32-.82,3.49,3.49,0,0,1-.87-1.24,4.08,4.08,0,0,1,0-3.12,3.67,3.67,0,0,1,.87-1.24,4.1,4.1,0,0,1,1.31-.82,4.84,4.84,0,0,1,3.3,0,3.91,3.91,0,0,1,1.31.81,3.62,3.62,0,0,1,.87,1.25,3.78,3.78,0,0,1,.31,1.56,3.86,3.86,0,0,1-.31,1.57,3.58,3.58,0,0,1-.87,1.24,3.78,3.78,0,0,1-1.31.82A4.59,4.59,0,0,1,81.33,94.84Zm0-1.49a2.33,2.33,0,0,0,.93-.17,2.31,2.31,0,0,0,.76-.51,2.49,2.49,0,0,0,.5-.77,2.55,2.55,0,0,0,.18-1,2.59,2.59,0,0,0-.18-1,2.45,2.45,0,0,0-.5-.76,2.31,2.31,0,0,0-.76-.51,2.34,2.34,0,0,0-.93-.18,2.42,2.42,0,0,0-.94.18,2.17,2.17,0,0,0-.75.51,2.45,2.45,0,0,0-.5.76,2.59,2.59,0,0,0-.18,1,2.55,2.55,0,0,0,.18,1,2.49,2.49,0,0,0,.5.77,2.17,2.17,0,0,0,.75.51A2.42,2.42,0,0,0,81.32,93.35Z"/><path class="cls-1" d="M88.94,94.71V87.14h1.45l4.46,5.45h-.7V87.14h1.73v7.57H94.43L90,89.26h.7v5.45Z"/><path class="cls-2" d="M59.13,26.44a6,6,0,0,0-2.19-3.76,5.14,5.14,0,0,0-4.57-1.05,5.3,5.3,0,0,0-2.55,1.42,6.66,6.66,0,0,0-1.2,1.67c0,.08-.08.16-.13.24s0,0,0-.05l-.09-.19a5.76,5.76,0,0,0-1.49-1.93l-.13-.12A5.26,5.26,0,0,0,43,21.5a5.64,5.64,0,0,0-1.89.51,5.74,5.74,0,0,0-1.92,1.54,6.19,6.19,0,0,0-1.37,3.33,8.3,8.3,0,0,0,.08,2.17,8.42,8.42,0,0,0,.75,2.47,9.6,9.6,0,0,0,1.56,2.33c.7.76,1.41,1.51,2.15,2.24,1,1,2,1.95,3,2.94a24.46,24.46,0,0,1,2.34,2.75c.27.37.53.75.8,1.14l.05,0a21.53,21.53,0,0,1,2.78-3.59c.82-.86,1.66-1.7,2.51-2.53a42.57,42.57,0,0,0,3.1-3.2,9.28,9.28,0,0,0,2.23-4.88A7.31,7.31,0,0,0,59.13,26.44Z"/></svg>