<svg width="83" height="82" viewBox="0 0 83 82" fill="none" xmlns="http://www.w3.org/2000/svg">
<g clip-path="url(#clip0_58_1607)">
<path d="M31.5812 31.6582C31.0081 31.35 30.3742 31.1719 29.7244 31.1363C29.563 31.1193 29.3999 31.1455 29.2519 31.2124C29.1039 31.2792 28.9764 31.3841 28.8823 31.5165C28.7883 31.6488 28.7311 31.8038 28.7167 31.9656C28.7023 32.1273 28.7312 32.2899 28.8004 32.4368C28.9351 32.8262 29.1131 33.1993 29.3309 33.5491C29.7416 34.208 30.1865 34.824 30.5972 35.5C30.9484 36.0501 31.2354 36.6386 31.4528 37.254C31.5726 37.5301 31.6126 37.8342 31.5682 38.1318C31.5238 38.4295 31.3968 38.7087 31.2016 38.9378C31.0064 39.1668 30.7509 39.3365 30.464 39.4276C30.1772 39.5187 29.8706 39.5275 29.579 39.453C29.0489 39.3935 28.5285 39.267 28.0303 39.0765C25.2027 37.8955 22.6785 36.0908 20.6463 33.7973C19.5461 32.6226 18.8609 31.12 18.6954 29.5191C18.55 28.2528 18.4473 26.9523 18.3018 25.7202C18.0965 23.9148 17.4462 22.349 15.735 21.442C14.9221 20.9971 14.4943 21.2025 14.5114 22.118C14.5713 24.7704 14.5713 27.4314 14.7681 30.0753C14.8546 31.6549 15.1568 33.2152 15.6665 34.7128C16.5664 37.118 17.9614 39.3076 19.761 41.1396C21.5606 42.9717 23.7249 44.4055 26.1137 45.3482C28.1159 46.2038 30.2121 46.8969 32.2143 47.7611C35.0807 49.0017 37.8443 50.482 39.7609 53.297C39.7609 53.066 39.8208 52.9718 39.8294 52.8777C40.1204 49.6293 40.0602 46.359 39.6497 43.1236C38.9994 37.8273 36.0047 34.2251 31.5812 31.6582Z" fill="white"/>
<path d="M68.45 21.9554C68.45 21.0998 67.9966 20.903 67.2693 21.3137C66.6501 21.6283 66.1136 22.0842 65.7033 22.6446C65.2931 23.205 65.0205 23.8541 64.9078 24.5394C64.6596 25.994 64.5398 27.4742 64.3773 28.9459C64.26 30.623 63.6196 32.221 62.5462 33.5149C61.1307 35.1328 59.4776 36.5262 57.6435 37.6476C56.4108 38.5019 55.0111 39.0851 53.5365 39.3589C51.8851 39.5984 50.9696 38.5032 51.5857 36.9289C51.9466 36.168 52.3552 35.4307 52.8092 34.7214C53.2818 34.0093 53.7159 33.2724 54.1098 32.5139C54.2204 32.3522 54.2779 32.16 54.2742 31.9641C54.2704 31.7682 54.2056 31.5784 54.0888 31.4211C53.972 31.2638 53.809 31.1468 53.6226 31.0866C53.4361 31.0263 53.2356 31.0258 53.0488 31.085C52.5365 31.1105 52.0364 31.2509 51.5857 31.4957C50.5214 32.1593 49.4932 32.8791 48.5054 33.6518C46.114 35.4542 44.4281 38.036 43.7396 40.9503C43.0621 43.8772 42.7744 46.8808 42.884 49.8831C42.884 50.9783 43.0123 52.0649 43.0979 53.3056C44.6546 51.15 46.7781 49.4678 49.2327 48.4456C51.1493 47.59 53.1172 46.7344 55.1108 46.0327C58.624 44.8799 61.7565 42.7915 64.1719 39.992C66.2257 37.6636 67.5602 34.7896 68.0137 31.7181C68.3899 28.4783 68.5357 25.2159 68.45 21.9554Z" fill="white"/>
<path d="M60.0564 34.3107L60.1932 34.3706L61.2884 33.2069C61.9253 32.619 62.4127 31.8878 62.7103 31.0738C63.0079 30.2598 63.1071 29.3866 62.9997 28.5267C62.7105 27.0062 62.345 25.5012 61.9045 24.0175C61.7847 23.5726 61.2799 23.5127 60.8949 23.8635C60.145 24.4654 59.6475 25.3261 59.5002 26.2764C59.4145 27.2138 59.4317 28.1577 59.5515 29.0914C59.7654 30.8026 60.2617 32.5139 60.0564 34.3107Z" fill="white"/>
<path d="M22.8281 34.3534C22.8709 33.5491 22.8281 32.8132 22.9479 32.0774C23.1105 30.8025 23.3586 29.5105 23.5383 28.2613C23.6832 27.4906 23.6339 26.696 23.3949 25.9491C23.1559 25.2022 22.7347 24.5266 22.1693 23.9832C21.6302 23.4698 21.1682 23.581 20.9714 24.2998C20.7147 25.1554 20.5008 26.0966 20.2441 26.9864C19.9284 27.9927 19.8407 29.0566 19.9874 30.1009C20.2955 31.9063 21.5276 33.1298 22.8281 34.3534Z" fill="white"/>
<path d="M41.4807 -0.0512695C35.5881 -0.0399375 29.9406 2.30886 25.7779 6.47962C21.6152 10.6504 19.2772 16.3023 19.2773 22.195C19.2773 22.6913 19.2944 23.1875 19.3286 23.6838C19.816 18.1425 22.3617 12.985 26.4638 9.22785C30.5658 5.47075 35.9267 3.38677 41.4893 3.38677C47.0519 3.38677 52.4127 5.47075 56.5148 9.22785C60.6169 12.985 63.1626 18.1425 63.65 23.6838C63.6842 23.1875 63.7013 22.6913 63.7013 22.195C63.7013 16.2994 61.3611 10.6448 57.1946 6.47358C53.0282 2.30233 47.3764 -0.0444669 41.4807 -0.0512695Z" fill="white"/>
<path d="M41.301 37.6474C41.4123 37.4678 41.5321 37.2881 41.6519 37.1084C41.5235 37.2881 41.4037 37.4763 41.2839 37.6646L41.301 37.6474Z" fill="white"/>
<path d="M0 69.9388V63.4617H4.89418V64.6595H1.47168V69.9388H0ZM1.38611 67.5943V66.3708H4.49203V67.5943H1.38611Z" fill="white"/>
<path d="M5.91238 69.9388V63.4617H10.798V64.6595H7.3755V68.7323H10.9007V69.9388H5.91238ZM7.28994 67.235V66.0628H10.4044V67.235H7.28994Z" fill="white"/>
<path d="M12.1157 69.9388V63.4617H17.0098V64.6595H13.5873V68.7323H17.1125V69.9388H12.1157ZM13.4932 67.235V66.0628H16.6077V67.235H13.4932Z" fill="white"/>
<path d="M18.3189 69.9387V63.4616H21.2623C21.904 63.45 22.5396 63.5877 23.119 63.8638C23.6429 64.1204 24.0802 64.525 24.3768 65.0274C24.6772 65.5477 24.8353 66.1379 24.8353 66.7387C24.8353 67.3394 24.6772 67.9296 24.3768 68.4499C24.0593 68.9221 23.6183 69.2979 23.1019 69.5366C22.5225 69.8127 21.8869 69.9503 21.2452 69.9387H18.3189ZM19.8248 68.7152H21.1853C21.5775 68.7176 21.9646 68.6266 22.3147 68.4499C22.6236 68.2934 22.8795 68.0494 23.0505 67.7483C23.2237 67.4399 23.3151 67.0923 23.3158 66.7387C23.3269 66.3646 23.2352 65.9947 23.0505 65.6691C22.8772 65.3699 22.6219 65.1265 22.3147 64.9675C21.9625 64.7994 21.5754 64.7172 21.1853 64.7279H19.8248V68.7152Z" fill="white"/>
<path d="M29.9469 69.9388V64.6852H27.842V63.4617H33.4892V64.6852H31.4186V69.9388H29.9469Z" fill="white"/>
<path d="M34.2935 69.9388V63.4617H35.7994V69.9388H34.2935ZM35.6796 67.2778V66.0114H38.8454V67.2778H35.6796ZM38.7342 69.9388V63.4617H40.2144V69.9388H38.7342Z" fill="white"/>
<path d="M41.7631 69.9388V63.4617H46.6572V64.6595H43.2347V68.7323H46.7599V69.9388H41.7631ZM43.1406 67.235V66.0628H46.2551V67.235H43.1406Z" fill="white"/>
<path d="M50.5846 69.9388V63.4617H52.0905V69.9388H50.5846ZM51.9707 67.2778V66.0114H55.1365V67.2778H51.9707ZM55.0253 69.9388V63.4617H56.5226V69.9388H55.0253Z" fill="white"/>
<path d="M58.0627 69.9388V63.4617H62.9484V64.6595H59.5259V68.7323H63.0425V69.9388H58.0627ZM59.4403 67.235V66.0628H62.5548V67.235H59.4403Z" fill="white"/>
<path d="M63.4104 69.9388L66.2939 63.4617H67.7741L70.6747 69.9388H69.1003L66.7388 64.2232H67.3463L64.9676 69.9388H63.4104ZM64.865 68.5441L65.2414 67.4061H68.5955L68.9805 68.5441H64.865Z" fill="white"/>
<path d="M71.3506 69.9389V63.4618H74.1143C74.8651 63.4136 75.6085 63.6351 76.2105 64.0864C76.4604 64.2935 76.6586 64.556 76.7893 64.8531C76.92 65.1501 76.9796 65.4735 76.9635 65.7977C76.977 66.2416 76.8579 66.6796 76.6212 67.0555C76.3829 67.4122 76.0431 67.6893 75.6458 67.8512C75.1705 68.0432 74.661 68.1364 74.1485 68.125H72.172L72.8565 67.4747V69.9389H71.3506ZM72.8565 67.6373L72.172 66.9271H74.0715C74.4399 66.9532 74.8059 66.8504 75.1068 66.6362C75.2271 66.5301 75.3213 66.3977 75.3821 66.2493C75.4429 66.101 75.4688 65.9405 75.4576 65.7806C75.4715 65.6203 75.4469 65.4591 75.3859 65.3102C75.3249 65.1614 75.2292 65.0293 75.1068 64.9249C74.8059 64.7108 74.4399 64.6079 74.0715 64.634H72.172L72.8565 63.9153V67.6373ZM75.4747 69.9389L73.849 67.5945H75.4576L77.0833 69.9475L75.4747 69.9389Z" fill="white"/>
<path d="M79.4021 69.9388V64.6852H77.3315V63.4617H82.9957V64.6852H80.8994V69.9388H79.4021Z" fill="white"/>
<path d="M0.205353 81.0364V74.5593H5.13376V75.7572H1.71125V81.0364H0.205353ZM1.59147 78.7177V77.4685H4.70594V78.7177H1.59147Z" fill="white"/>
<path d="M11.0204 81.1475C10.5377 81.1532 10.0584 81.0661 9.60866 80.8908C9.18711 80.7388 8.80228 80.4998 8.47924 80.1892C8.14403 79.8978 7.87803 79.5354 7.70062 79.1282C7.34695 78.2735 7.34695 77.3134 7.70062 76.4587C7.87227 76.0571 8.1258 75.6957 8.44501 75.3977C8.77078 75.0949 9.15116 74.8568 9.56588 74.6961C10.478 74.3653 11.4773 74.3653 12.3894 74.6961C12.8044 74.8523 13.1851 75.0877 13.5103 75.3891C13.8262 75.6934 14.0791 76.0568 14.2547 76.4587C14.4404 76.8795 14.5393 77.3335 14.5456 77.7934C14.5486 78.2545 14.4584 78.7114 14.2804 79.1368C14.1032 79.5404 13.8468 79.9044 13.5264 80.2072C13.206 80.5099 12.8281 80.7453 12.4151 80.8994C11.9691 81.0659 11.4965 81.15 11.0204 81.1475ZM11.0204 79.8726C11.2928 79.879 11.5637 79.8295 11.8162 79.7271C12.0584 79.6285 12.2771 79.4798 12.4579 79.2908C12.6455 79.1022 12.7938 78.8783 12.8943 78.6319C12.9996 78.3594 13.049 78.0684 13.0397 77.7763C13.0481 77.4843 12.9987 77.1935 12.8943 76.9207C12.7936 76.677 12.6453 76.4559 12.4579 76.2704C12.2771 76.0814 12.0584 75.9327 11.8162 75.834C11.5642 75.729 11.2934 75.6766 11.0204 75.68C10.7448 75.6773 10.4713 75.7297 10.2162 75.834C9.9739 75.9327 9.75522 76.0814 9.57444 76.2704C9.3896 76.4562 9.2441 76.6774 9.14663 76.9207C9.0393 77.1929 8.98695 77.4837 8.99261 77.7763C8.98603 78.069 9.03841 78.36 9.14663 78.6319C9.24412 78.8778 9.38955 79.1017 9.57444 79.2908C9.75522 79.4798 9.9739 79.6285 10.2162 79.7271C10.4693 79.8275 10.7397 79.8769 11.0119 79.8726H11.0204Z" fill="white"/>
<path d="M20.4067 81.1476C20.014 81.1698 19.621 81.1131 19.2506 80.9809C18.8803 80.8486 18.5402 80.6435 18.2505 80.3776C17.9798 80.0821 17.7713 79.7351 17.6376 79.3573C17.5038 78.9795 17.4474 78.5786 17.4719 78.1786V74.5593H18.9863V78.1358C18.9404 78.6095 19.0749 79.0831 19.3628 79.4621C19.4982 79.6024 19.6624 79.7117 19.844 79.7826C20.0257 79.8535 20.2205 79.8843 20.4152 79.8728C20.6112 79.8844 20.8073 79.8537 20.9904 79.7828C21.1734 79.712 21.3391 79.6026 21.4762 79.4621C21.7671 79.0843 21.9047 78.6106 21.8612 78.1358V74.5593H23.3329V78.1786C23.3573 78.5786 23.301 78.9795 23.1672 79.3573C23.0334 79.7351 22.825 80.0821 22.5543 80.3776C22.2664 80.6436 21.9278 80.8489 21.5589 80.9812C21.1899 81.1135 20.798 81.1701 20.4067 81.1476Z" fill="white"/>
<path d="M26.6698 81.0364V74.5593H27.9105L31.7266 79.2225H31.1276V74.5593H32.6079V81.0364H31.3672L27.5426 76.3733H28.1501V81.0364H26.6698Z" fill="white"/>
<path d="M35.9876 81.0364V74.5593H38.931C39.5727 74.5476 40.2083 74.6853 40.7877 74.9614C41.307 75.2089 41.7437 75.6011 42.0454 76.0908C42.3458 76.6111 42.504 77.2013 42.504 77.8021C42.504 78.4029 42.3458 78.9931 42.0454 79.5133C41.7387 79.9989 41.3033 80.3898 40.7877 80.6428C40.2083 80.9189 39.5727 81.0566 38.931 81.0449L35.9876 81.0364ZM37.4935 79.8128H38.854C39.2441 79.8232 39.6311 79.7411 39.9834 79.5732C40.2941 79.4193 40.5507 79.1746 40.7192 78.8716C40.9026 78.5456 40.9943 78.176 40.9845 77.8021C40.9956 77.428 40.9038 77.0581 40.7192 76.7326C40.5482 76.4315 40.2923 76.1875 39.9834 76.031C39.6312 75.8628 39.2441 75.7807 38.854 75.7914H37.4935V79.8128Z" fill="white"/>
<path d="M44.5353 81.0364L47.4102 74.5593H48.8904L51.791 81.0364H50.2252L47.8466 75.2952H48.4455L46.0669 81.0107L44.5353 81.0364ZM45.9899 79.6417L46.3663 78.5038H49.7118L50.1054 79.6417H45.9899Z" fill="white"/>
<path d="M55.3333 81.0364V75.7829H53.2627V74.5593H58.9098V75.7829H56.8307V81.0364H55.3333Z" fill="white"/>
<path d="M61.605 81.0364V74.5593H63.1109V81.0364H61.605Z" fill="white"/>
<path d="M69.588 81.1475C69.1053 81.1532 68.626 81.0661 68.1762 80.8908C67.7547 80.7388 67.3699 80.4998 67.0468 80.1892C66.724 79.8943 66.4699 79.5321 66.3024 79.1282C65.9488 78.2735 65.9488 77.3134 66.3024 76.4587C66.4741 76.0571 66.7276 75.6957 67.0468 75.3977C67.3726 75.0949 67.753 74.8568 68.1677 74.6961C69.0798 74.3653 70.0791 74.3653 70.9913 74.6961C71.4071 74.8505 71.7881 75.0861 72.1121 75.3891C72.4333 75.6888 72.687 76.0534 72.8565 76.4587C73.0386 76.8797 73.129 77.3347 73.1218 77.7934C73.1282 78.2548 73.0378 78.7124 72.8565 79.1368C72.6869 79.5395 72.4331 79.9012 72.1121 80.1977C71.7908 80.5063 71.4092 80.7452 70.9913 80.8994C70.5426 81.0669 70.067 81.151 69.588 81.1475ZM69.588 79.8726C69.8604 79.879 70.1312 79.8295 70.3838 79.7271C70.6275 79.6265 70.8485 79.4781 71.034 79.2908C71.2162 79.0996 71.3613 78.8762 71.4618 78.6319C71.5701 78.36 71.6224 78.069 71.6159 77.7763C71.6215 77.4837 71.5692 77.1929 71.4618 76.9207C71.3611 76.6791 71.216 76.4586 71.034 76.2704C70.8485 76.083 70.6275 75.9347 70.3838 75.834C70.1318 75.729 69.861 75.6766 69.588 75.68C69.3124 75.6773 69.0389 75.7297 68.7837 75.834C68.5415 75.9327 68.3228 76.0814 68.142 76.2704C67.9601 76.4586 67.815 76.6791 67.7142 76.9207C67.6069 77.1929 67.5545 77.4837 67.5602 77.7763C67.5536 78.069 67.606 78.36 67.7142 78.6319C67.8147 78.8762 67.9598 79.0996 68.142 79.2908C68.3228 79.4798 68.5415 79.6285 68.7837 79.7271C69.0368 79.8275 69.3072 79.8769 69.5795 79.8726H69.588Z" fill="white"/>
<path d="M76.0993 81.0364V74.5593H77.34L81.156 79.2225H80.5571V74.5593H82.0373V81.0364H80.7967L77.0063 76.3733H77.6052V81.0364H76.0993Z" fill="white"/>
<path d="M50.5931 22.6227C50.3931 21.3536 49.7245 20.2057 48.7193 19.4056C48.1855 18.9564 47.5525 18.6407 46.8726 18.4845C46.1927 18.3283 45.4854 18.336 44.8091 18.5071C43.9825 18.7 43.2265 19.1209 42.6273 19.7221C42.2131 20.1424 41.8667 20.6244 41.6005 21.151C41.6005 21.2195 41.5321 21.2879 41.4893 21.3564C41.4465 21.4248 41.4893 21.3564 41.4893 21.3136L41.4123 21.151C41.11 20.5159 40.6753 19.9528 40.1374 19.4997L40.0262 19.397C39.1195 18.6551 37.9592 18.2959 36.7919 18.3959C36.2315 18.446 35.6843 18.5937 35.1748 18.8323C34.5383 19.1476 33.9779 19.5971 33.532 20.1499C32.8675 20.9626 32.4595 21.9543 32.3598 22.9992C32.3012 23.6184 32.3242 24.2427 32.4282 24.8559C32.5322 25.5892 32.7487 26.302 33.0699 26.9693C33.4149 27.6956 33.8646 28.3673 34.4047 28.9629C35.0036 29.6132 35.6111 30.2549 36.2443 30.8795C37.0999 31.7351 37.9556 32.548 38.8112 33.395C39.5356 34.129 40.2048 34.9154 40.8133 35.748C41.0444 36.0646 41.2668 36.3897 41.4978 36.7234H41.5406C42.223 35.6185 43.0203 34.5889 43.9193 33.6517C44.6209 32.9159 45.3396 32.1972 46.0669 31.487C46.9982 30.6212 47.8836 29.7073 48.7193 28.749C49.7526 27.5754 50.4164 26.1229 50.6274 24.5735C50.7181 23.9255 50.7065 23.2672 50.5931 22.6227Z" fill="#FFD602"/>
</g>
<defs>
<clipPath id="clip0_58_1607">
<rect width="82.97" height="81.0876" fill="white"/>
</clipPath>
</defs>
</svg>
